<svg width="153" height="52" viewBox="0 0 153 52" fill="none" xmlns="http://www.w3.org/2000/svg">
<rect width="52" height="52" rx="14.8571" fill="#00BFA6"/>
<path d="M26.0001 38.3804C32.8379 38.3804 38.381 32.8372 38.381 25.9994C38.381 19.1616 32.8379 13.6185 26.0001 13.6185C19.1623 13.6185 13.6191 19.1616 13.6191 25.9994C13.6191 32.8372 19.1623 38.3804 26.0001 38.3804ZM26.5671 22.7626C27.7893 23.2496 28.7675 24.203 29.2858 25.4123L31.5809 30.7675C31.801 31.2812 31.2816 31.8005 30.768 31.5804L25.4127 29.2853C24.2035 28.767 23.2501 27.7888 22.763 26.5667L20.7756 21.5795C20.5744 21.0746 21.0749 20.574 21.5798 20.7752L26.5671 22.7626Z" fill="#F9F9F9"/>
<path d="M64.2614 28.4665H69.2534V31.3488C69.2534 31.844 69.4118 32.2105 69.7288 32.4482C70.0655 32.6661 70.5311 32.7751 71.1254 32.7751C71.4225 32.7751 71.7295 32.7553 72.0465 32.7156C72.3634 32.6562 72.6408 32.5869 72.8785 32.5076C73.0568 32.7057 73.2054 32.9434 73.3242 33.2208C73.4629 33.4981 73.5322 33.825 73.5322 34.2013C73.5322 34.9343 73.245 35.5484 72.6705 36.0436C72.1158 36.5191 71.1254 36.7568 69.6991 36.7568C67.9558 36.7568 66.6088 36.3606 65.6579 35.5682C64.7269 34.7758 64.2614 33.4882 64.2614 31.7053V28.4665ZM67.5299 26.0596V22.1968H73.1459C73.2648 22.3949 73.3737 22.6623 73.4728 22.9991C73.5916 23.3358 73.6511 23.7023 73.6511 24.0985C73.6511 24.7918 73.4926 25.297 73.1756 25.6139C72.8785 25.9111 72.4724 26.0596 71.9574 26.0596H67.5299ZM69.2534 29.1796H64.2614V18.5122C64.4793 18.4528 64.7863 18.3933 65.1825 18.3339C65.5985 18.2547 66.0343 18.2151 66.4899 18.2151C67.4606 18.2151 68.1638 18.3834 68.5996 18.7202C69.0354 19.057 69.2534 19.681 69.2534 20.5922V29.1796Z" fill="#25282B"/>
<path d="M89.951 29.0905C89.951 30.6753 89.6241 32.0421 88.9704 33.1911C88.3365 34.34 87.4352 35.2314 86.2664 35.8653C85.1175 36.4794 83.7506 36.7865 82.1658 36.7865C80.6009 36.7865 79.234 36.4794 78.0653 35.8653C76.8965 35.2513 75.9853 34.3697 75.3315 33.2208C74.6976 32.0718 74.3807 30.6951 74.3807 29.0905C74.3807 27.5255 74.7075 26.1686 75.3613 25.0196C76.015 23.8707 76.9262 22.9892 78.095 22.3751C79.2637 21.7412 80.6207 21.4242 82.1658 21.4242C83.7308 21.4242 85.0877 21.7412 86.2367 22.3751C87.4055 23.009 88.3167 23.9004 88.9704 25.0493C89.6241 26.1983 89.951 27.5453 89.951 29.0905ZM82.1658 25.3762C81.3536 25.3762 80.7098 25.7031 80.2344 26.3568C79.7788 26.9907 79.551 27.9019 79.551 29.0905C79.551 30.3187 79.7788 31.2497 80.2344 31.8836C80.69 32.5175 81.3338 32.8345 82.1658 32.8345C82.9978 32.8345 83.6416 32.5175 84.0973 31.8836C84.5529 31.2299 84.7807 30.2989 84.7807 29.0905C84.7807 27.9217 84.543 27.0105 84.0675 26.3568C83.6119 25.7031 82.978 25.3762 82.1658 25.3762Z" fill="#25282B"/>
<path d="M91.524 30.5762V28.6151H96.5754V30.5762C96.5754 31.3686 96.7735 31.9431 97.1697 32.2996C97.5857 32.6562 98.1602 32.8345 98.8931 32.8345C99.3487 32.8345 99.7251 32.7949 100.022 32.7156C100.319 32.6364 100.537 32.5572 100.676 32.4779V28.6151H105.727V33.2208C105.727 33.716 105.618 34.1518 105.401 34.5282C105.202 34.8848 104.895 35.1918 104.479 35.4493C103.786 35.8852 102.954 36.212 101.983 36.4299C101.033 36.6676 99.9925 36.7865 98.8634 36.7865C97.4371 36.7865 96.1693 36.5785 95.06 36.1625C93.9506 35.7267 93.079 35.0532 92.4451 34.1419C91.831 33.2307 91.524 32.0421 91.524 30.5762ZM105.727 29.8928H100.676V21.9293C100.894 21.8699 101.201 21.8105 101.597 21.7511C102.013 21.6916 102.459 21.6619 102.934 21.6619C103.925 21.6619 104.638 21.8303 105.074 22.1671C105.51 22.484 105.727 23.108 105.727 24.0391V29.8928ZM96.5754 29.8928H91.524V21.9293C91.7419 21.8699 92.0489 21.8105 92.4451 21.7511C92.8611 21.6916 93.3068 21.6619 93.7823 21.6619C94.7727 21.6619 95.4859 21.8303 95.9217 22.1671C96.3575 22.484 96.5754 23.108 96.5754 24.0391V29.8928Z" fill="#25282B"/>
<path d="M112.979 26.1191V29.5065H107.927V25.3465C107.927 24.772 108.076 24.2768 108.373 23.8608C108.69 23.425 109.096 23.0486 109.591 22.7316C110.285 22.3156 111.097 21.9987 112.028 21.7808C112.959 21.5629 113.92 21.4539 114.91 21.4539C117.069 21.4539 118.149 22.2166 118.149 23.7419C118.149 24.0985 118.099 24.4353 118 24.7522C117.901 25.0493 117.782 25.3069 117.644 25.5248C117.446 25.4852 117.208 25.4554 116.931 25.4356C116.653 25.4158 116.346 25.4059 116.009 25.4059C115.514 25.4059 114.989 25.4653 114.435 25.5842C113.88 25.7031 113.395 25.8813 112.979 26.1191ZM107.927 28.4665H112.979V36.2813C112.761 36.3408 112.444 36.4002 112.028 36.4596C111.632 36.5191 111.196 36.5488 110.72 36.5488C109.75 36.5488 109.037 36.3804 108.581 36.0436C108.145 35.7069 107.927 35.0829 107.927 34.1716V28.4665Z" fill="#25282B"/>
<path d="M119.133 17.8585C119.133 17.1057 119.391 16.4718 119.906 15.9568C120.421 15.4417 121.085 15.1842 121.897 15.1842C122.709 15.1842 123.373 15.4417 123.888 15.9568C124.403 16.4718 124.66 17.1057 124.66 17.8585C124.66 18.5914 124.403 19.2253 123.888 19.7602C123.373 20.2753 122.709 20.5328 121.897 20.5328C121.085 20.5328 120.421 20.2753 119.906 19.7602C119.391 19.2253 119.133 18.5914 119.133 17.8585ZM119.371 28.4665H124.423V36.2813C124.205 36.3408 123.888 36.4002 123.472 36.4596C123.076 36.5191 122.64 36.5488 122.164 36.5488C121.194 36.5488 120.48 36.3804 120.025 36.0436C119.589 35.7069 119.371 35.0829 119.371 34.1716V28.4665ZM124.423 31.1111H119.371V22.0779C119.589 22.0185 119.896 21.9591 120.292 21.8996C120.708 21.8402 121.154 21.8105 121.629 21.8105C122.62 21.8105 123.333 21.9789 123.769 22.3156C124.205 22.6326 124.423 23.2566 124.423 24.1876V31.1111Z" fill="#25282B"/>
<path d="M138.93 32.0025C138.93 33.508 138.355 34.6867 137.206 35.5385C136.077 36.3903 134.423 36.8162 132.244 36.8162C130.56 36.8162 129.174 36.5785 128.084 36.1031C127.014 35.6078 126.48 34.8452 126.48 33.8151C126.48 33.3396 126.579 32.9335 126.777 32.5968C126.975 32.26 127.213 31.9926 127.49 31.7945C128.064 32.1114 128.718 32.3987 129.451 32.6562C130.204 32.8939 131.065 33.0128 132.036 33.0128C133.304 33.0128 133.938 32.6859 133.938 32.0322C133.938 31.7549 133.819 31.537 133.581 31.3785C133.344 31.22 132.947 31.0913 132.393 30.9922L131.501 30.8139C129.798 30.4772 128.52 29.9423 127.668 29.2093C126.816 28.4764 126.39 27.4463 126.39 26.1191C126.39 24.6333 126.995 23.4745 128.203 22.6425C129.411 21.8105 130.986 21.3945 132.928 21.3945C133.898 21.3945 134.78 21.4935 135.572 21.6916C136.384 21.8699 137.028 22.1671 137.504 22.5831C137.979 22.9793 138.217 23.4943 138.217 24.1282C138.217 24.564 138.128 24.9503 137.949 25.2871C137.791 25.6238 137.583 25.9012 137.325 26.1191C137.107 25.9804 136.761 25.8417 136.285 25.7031C135.83 25.5644 135.334 25.4455 134.8 25.3465C134.265 25.2474 133.789 25.1979 133.373 25.1979C132.72 25.1979 132.214 25.2772 131.858 25.4356C131.501 25.5743 131.323 25.8021 131.323 26.1191C131.323 26.337 131.422 26.5153 131.62 26.6539C131.818 26.7926 132.195 26.9213 132.749 27.0402L133.67 27.2482C135.572 27.684 136.919 28.2882 137.712 29.0608C138.524 29.8135 138.93 30.7941 138.93 32.0025Z" fill="#25282B"/>
<path d="M140.54 28.4665H145.532V31.3488C145.532 31.844 145.69 32.2105 146.007 32.4482C146.344 32.6661 146.81 32.7751 147.404 32.7751C147.701 32.7751 148.008 32.7553 148.325 32.7156C148.642 32.6562 148.919 32.5869 149.157 32.5076C149.335 32.7057 149.484 32.9434 149.603 33.2208C149.742 33.4981 149.811 33.825 149.811 34.2013C149.811 34.9343 149.524 35.5484 148.949 36.0436C148.394 36.5191 147.404 36.7568 145.978 36.7568C144.234 36.7568 142.887 36.3606 141.937 35.5682C141.006 34.7758 140.54 33.4882 140.54 31.7053V28.4665ZM143.809 26.0596V22.1968H149.425C149.543 22.3949 149.652 22.6623 149.751 22.9991C149.87 23.3358 149.93 23.7023 149.93 24.0985C149.93 24.7918 149.771 25.297 149.454 25.6139C149.157 25.9111 148.751 26.0596 148.236 26.0596H143.809ZM145.532 29.1796H140.54V18.5122C140.758 18.4528 141.065 18.3933 141.461 18.3339C141.877 18.2547 142.313 18.2151 142.769 18.2151C143.739 18.2151 144.442 18.3834 144.878 18.7202C145.314 19.057 145.532 19.681 145.532 20.5922V29.1796Z" fill="#25282B"/>
</svg>
